<svg width="30" height="31" viewBox="0 0 30 31" fill="none" xmlns="http://www.w3.org/2000/svg">
<g id="&#240;&#159;&#166;&#134; icon &#34;github&#34;">
<path id="Vector" d="M15 1.39915C11.3918 1.36224 7.91672 2.76882 5.33841 5.30974C2.76011 7.85067 1.28958 11.318 1.25 14.9498C1.2639 17.8199 2.18118 20.6118 3.87008 22.9244C5.55898 25.2369 7.93259 26.9512 10.65 27.821C11.3375 27.9468 11.5875 27.5316 11.5875 27.1668C11.5875 26.8019 11.5875 25.9967 11.5875 24.8643C7.7625 25.6821 6.95 23.0525 6.95 23.0525C6.69537 22.227 6.15404 21.5213 5.425 21.0646C4.175 20.2342 5.525 20.2468 5.525 20.2468C5.95706 20.3049 6.37044 20.4607 6.73414 20.7026C7.09783 20.9445 7.4024 21.2661 7.625 21.6433C8.01291 22.3204 8.64942 22.8171 9.39751 23.0265C10.1456 23.2359 10.9455 23.1414 11.625 22.7631C11.6949 22.0741 12.0049 21.4323 12.5 20.9513C9.45 20.6116 6.25 19.4541 6.25 14.2578C6.22272 12.9023 6.7203 11.5893 7.6375 10.5965C7.21978 9.43274 7.26911 8.15096 7.775 7.02323C7.775 7.02323 8.9375 6.65836 11.525 8.40723C13.7774 7.8031 16.1476 7.8031 18.4 8.40723C21.025 6.65836 22.15 7.02323 22.15 7.02323C22.6559 8.15096 22.7052 9.43274 22.2875 10.5965C23.226 11.5711 23.7506 12.8753 23.75 14.2326C23.75 19.4415 20.525 20.5865 17.5 20.9262C17.8312 21.2499 18.0871 21.6434 18.2492 22.0785C18.4113 22.5136 18.4756 22.9794 18.4375 23.4425V27.1542C18.4375 27.1542 18.6875 27.9468 19.375 27.8084C22.0847 26.9333 24.4503 25.2185 26.134 22.9092C27.8177 20.5999 28.7333 17.8142 28.75 14.9498C28.7104 11.318 27.2399 7.85067 24.6616 5.30974C22.0833 2.76882 18.6082 1.36224 15 1.39915Z" fill="white"/>
</g>
</svg>
