<svg width="30" height="31" viewBox="0 0 30 31" fill="none" xmlns="http://www.w3.org/2000/svg">
<g id="&#240;&#159;&#166;&#134; icon &#34;facebook&#34;">
<path id="Vector" d="M21.25 5.02325C21.25 4.8564 21.1842 4.69639 21.0669 4.57842C20.9497 4.46044 20.7908 4.39416 20.625 4.39416H17.5C15.9264 4.31526 14.3857 4.86647 13.2147 5.92736C12.0436 6.98824 11.3372 8.47256 11.25 10.056V13.4531H8.125C7.95924 13.4531 7.80027 13.5194 7.68306 13.6373C7.56585 13.7553 7.5 13.9153 7.5 14.0822V17.3535C7.5 17.5203 7.56585 17.6803 7.68306 17.7983C7.80027 17.9163 7.95924 17.9826 8.125 17.9826H11.25V26.4124C11.25 26.5792 11.3158 26.7392 11.4331 26.8572C11.5503 26.9752 11.7092 27.0415 11.875 27.0415H15.625C15.7908 27.0415 15.9497 26.9752 16.0669 26.8572C16.1842 26.7392 16.25 26.5792 16.25 26.4124V17.9826H19.525C19.664 17.9846 19.7997 17.9399 19.9106 17.8556C20.0215 17.7713 20.1014 17.6521 20.1375 17.517L21.0375 14.2457C21.0624 14.1528 21.0657 14.0553 21.0473 13.9609C21.0288 13.8664 20.9891 13.7775 20.9311 13.7009C20.8732 13.6243 20.7985 13.5622 20.713 13.5192C20.6274 13.4762 20.5331 13.4536 20.4375 13.4531H16.25V10.056C16.2811 9.74456 16.4264 9.45598 16.6575 9.24659C16.8887 9.03721 17.189 8.92205 17.5 8.92362H20.625C20.7908 8.92362 20.9497 8.85734 21.0669 8.73937C21.1842 8.62139 21.25 8.46138 21.25 8.29453V5.02325Z" fill="white"/>
</g>
</svg>
