<svg width="30" height="31" viewBox="0 0 30 31" fill="none" xmlns="http://www.w3.org/2000/svg">
<g id="&#240;&#159;&#166;&#134; icon &#34;phone call&#34;">
<g id="Group">
<path id="Vector" d="M16.25 10.1277C17.2446 10.1277 18.1984 10.5254 18.9017 11.2332C19.6049 11.9411 20 12.9012 20 13.9023C20 14.2359 20.1317 14.556 20.3661 14.7919C20.6005 15.0279 20.9185 15.1604 21.25 15.1604C21.5815 15.1604 21.8995 15.0279 22.1339 14.7919C22.3683 14.556 22.5 14.2359 22.5 13.9023C22.5 12.2338 21.8415 10.6337 20.6694 9.4539C19.4973 8.27412 17.9076 7.61133 16.25 7.61133C15.9185 7.61133 15.6005 7.74389 15.3661 7.97984C15.1317 8.2158 15 8.53582 15 8.86951C15 9.2032 15.1317 9.52323 15.3661 9.75918C15.6005 9.99514 15.9185 10.1277 16.25 10.1277Z" fill="white"/>
<path id="Vector_2" d="M16.25 5.09498C18.5706 5.09498 20.7962 6.02289 22.4372 7.67458C24.0781 9.32627 25 11.5664 25 13.9023C25 14.236 25.1317 14.556 25.3661 14.7919C25.6005 15.0279 25.9185 15.1605 26.25 15.1605C26.5815 15.1605 26.8995 15.0279 27.1339 14.7919C27.3683 14.556 27.5 14.236 27.5 13.9023C27.5 10.8991 26.3147 8.01884 24.205 5.89524C22.0952 3.77164 19.2337 2.57861 16.25 2.57861C15.9185 2.57861 15.6005 2.71117 15.3661 2.94713C15.1317 3.18308 15 3.50311 15 3.8368C15 4.17049 15.1317 4.49051 15.3661 4.72647C15.6005 4.96242 15.9185 5.09498 16.25 5.09498Z" fill="white"/>
<path id="Vector_3" d="M27.1875 20.08C27.1187 19.878 27.0001 19.6969 26.8426 19.5539C26.6852 19.4108 26.4941 19.3104 26.2875 19.2621L18.7875 17.5384C18.5839 17.492 18.372 17.4976 18.1711 17.5547C17.9703 17.6118 17.7868 17.7187 17.6375 17.8656C17.4625 18.0291 17.45 18.0417 16.6375 19.6019C13.9415 18.3514 11.7812 16.1681 10.55 13.4493C12.1375 12.6441 12.15 12.6441 12.3125 12.4554C12.4584 12.3051 12.5646 12.1204 12.6213 11.9182C12.6781 11.716 12.6837 11.5027 12.6375 11.2978L10.925 3.8368C10.8771 3.62881 10.7773 3.43653 10.6352 3.27805C10.493 3.11957 10.3132 3.00011 10.1125 2.9309C9.82058 2.82596 9.51914 2.7501 9.2125 2.70443C8.89656 2.6307 8.57417 2.58855 8.25 2.57861C6.725 2.57861 5.26247 3.18838 4.18414 4.27378C3.1058 5.35917 2.5 6.83128 2.5 8.36626C2.50661 13.5031 4.53686 18.4276 8.1455 22.0598C11.7541 25.6921 16.6466 27.7356 21.75 27.7423C22.5051 27.7423 23.2528 27.5926 23.9504 27.3017C24.648 27.0109 25.2819 26.5846 25.8159 26.0471C26.3498 25.5097 26.7733 24.8717 27.0623 24.1695C27.3513 23.4673 27.5 22.7147 27.5 21.9547C27.5004 21.6344 27.4753 21.3147 27.425 20.9984C27.3725 20.6859 27.293 20.3786 27.1875 20.08Z" fill="white"/>
</g>
</g>
</svg>
