<svg width="35" height="31" viewBox="0 0 35 31" fill="none" xmlns="http://www.w3.org/2000/svg">
<g id="&#240;&#159;&#166;&#134; icon &#34;twitter&#34;">
<path id="Vector" d="M6.34547 30.6988C8.19384 30.761 10.0359 30.4497 11.7626 29.7832C13.4894 29.1167 15.066 28.1085 16.3991 26.8183C17.7322 25.5281 18.7948 23.982 19.5242 22.2713C20.2535 20.5607 20.6348 18.7202 20.6455 16.8588C21.4925 15.8037 22.1215 14.5888 22.4955 13.2855C22.5234 13.1826 22.5211 13.0737 22.489 12.9719C22.4568 12.8702 22.3962 12.7801 22.3143 12.7122C22.2324 12.6444 22.1328 12.6019 22.0274 12.5898C21.9221 12.5776 21.8155 12.5964 21.7205 12.6438C21.2773 12.8586 20.7784 12.9279 20.294 12.8421C19.8097 12.7564 19.3642 12.5198 19.0205 12.1657C18.5817 11.6821 18.0509 11.292 17.4595 11.0186C16.8682 10.7451 16.2283 10.594 15.5779 10.574C14.9275 10.5541 14.2797 10.6658 13.6729 10.9024C13.0661 11.1391 12.5127 11.496 12.0455 11.9518C11.4057 12.5755 10.9371 13.3551 10.6852 14.2149C10.4333 15.0747 10.4067 15.9855 10.608 16.8588C6.42047 17.1104 3.54547 15.1099 1.24547 12.367C1.17638 12.2883 1.08599 12.2315 0.985353 12.2036C0.884714 12.1757 0.778178 12.1778 0.678755 12.2099C0.579333 12.2419 0.491326 12.3024 0.425482 12.3839C0.359638 12.4654 0.318806 12.5645 0.307974 12.669C-0.130189 15.1155 0.185886 17.6383 1.21375 19.8986C2.24161 22.159 3.93203 24.0486 6.05797 25.3138C4.63252 26.9593 2.63073 27.987 0.470474 28.1824C0.354739 28.2017 0.247901 28.257 0.164913 28.3405C0.0819253 28.4239 0.0269405 28.5314 0.00765394 28.6479C-0.0116326 28.7644 0.0057446 28.884 0.0573535 28.9901C0.108962 29.0961 0.19222 29.1832 0.295474 29.2393C2.17487 30.1847 4.24451 30.6839 6.34547 30.6988Z" fill="white"/>
</g>
</svg>
