<svg width="32" height="35" viewBox="0 0 32 35" fill="none" xmlns="http://www.w3.org/2000/svg">
<g id="&#240;&#159;&#166;&#134; icon &#34;linkedin&#34;" filter="url(#filter0_d_15_148)">
<g id="Group">
<path id="Vector" d="M19.937 11.0733C18.979 11.07 18.0296 11.2568 17.1434 11.6232C16.2572 11.9896 15.4514 12.5282 14.7722 13.2084C14.093 13.8885 13.5537 14.6968 13.1852 15.5869C12.8167 16.477 12.6261 17.4316 12.6245 18.3959V25.794C12.6245 26.0944 12.743 26.3824 12.954 26.5948C13.165 26.8071 13.4511 26.9264 13.7495 26.9264H16.3745C16.6729 26.9264 16.959 26.8071 17.17 26.5948C17.381 26.3824 17.4995 26.0944 17.4995 25.794V18.3959C17.4993 18.0529 17.5708 17.7138 17.7096 17.4005C17.8483 17.0872 18.051 16.8069 18.3046 16.5778C18.5582 16.3487 18.8569 16.1759 19.1812 16.0708C19.5055 15.9656 19.8483 15.9305 20.187 15.9676C20.7945 16.0446 21.3528 16.3434 21.756 16.8072C22.1592 17.2711 22.3793 17.8677 22.3745 18.484V25.794C22.3745 26.0944 22.493 26.3824 22.704 26.5948C22.915 26.8071 23.2011 26.9264 23.4995 26.9264H26.1245C26.4229 26.9264 26.709 26.8071 26.92 26.5948C27.131 26.3824 27.2495 26.0944 27.2495 25.794V18.3959C27.2479 17.4316 27.0573 16.477 26.6888 15.5869C26.3203 14.6968 25.781 13.8885 25.1018 13.2084C24.4226 12.5282 23.6168 11.9896 22.7306 11.6232C21.8444 11.2568 20.8951 11.07 19.937 11.0733Z" fill="white"/>
<path id="Vector_2" d="M9.25 12.2056H5.875C5.25368 12.2056 4.75 12.7125 4.75 13.3379V25.794C4.75 26.4193 5.25368 26.9263 5.875 26.9263H9.25C9.87132 26.9263 10.375 26.4193 10.375 25.794V13.3379C10.375 12.7125 9.87132 12.2056 9.25 12.2056Z" fill="white"/>
<path id="Vector_3" d="M7.5625 9.94113C9.1158 9.94113 10.375 8.67368 10.375 7.11021C10.375 5.54674 9.1158 4.2793 7.5625 4.2793C6.0092 4.2793 4.75 5.54674 4.75 7.11021C4.75 8.67368 6.0092 9.94113 7.5625 9.94113Z" fill="white"/>
</g>
</g>
<defs>
<filter id="filter0_d_15_148" x="0.75" y="4.2793" width="30.4995" height="30.647" filterUnits="userSpaceOnUse" color-interpolation-filters="sRGB">
<feFlood flood-opacity="0" result="BackgroundImageFix"/>
<feColorMatrix in="SourceAlpha" type="matrix" values="0 0 0 0 0 0 0 0 0 0 0 0 0 0 0 0 0 0 127 0" result="hardAlpha"/>
<feOffset dy="4"/>
<feGaussianBlur stdDeviation="2"/>
<feComposite in2="hardAlpha" operator="out"/>
<feColorMatrix type="matrix" values="0 0 0 0 0 0 0 0 0 0 0 0 0 0 0 0 0 0 0.25 0"/>
<feBlend mode="normal" in2="BackgroundImageFix" result="effect1_dropShadow_15_148"/>
<feBlend mode="normal" in="SourceGraphic" in2="effect1_dropShadow_15_148" result="shape"/>
</filter>
</defs>
</svg>
